<svg width="281" height="521" xmlns="http://www.w3.org/2000/svg" xmlns:xlink="http://www.w3.org/1999/xlink"><defs><filter x="-12.9%" y="-11.8%" width="125.8%" height="125.2%" filterUnits="objectBoundingBox" id="a"><feOffset dy="2" in="SourceAlpha" result="shadowOffsetOuter1"/><feGaussianBlur stdDeviation="10" in="shadowOffsetOuter1" result="shadowBlurOuter1"/><feColorMatrix values="0 0 0 0 0.317647059 0 0 0 0 0.317647059 0 0 0 0 0.317647059 0 0 0 0.5 0" in="shadowBlurOuter1"/></filter><filter x="-12.9%" y="-18%" width="125.8%" height="138.5%" filterUnits="objectBoundingBox" id="c"><feOffset dy="2" in="SourceAlpha" result="shadowOffsetOuter1"/><feGaussianBlur stdDeviation="10" in="shadowOffsetOuter1" result="shadowBlurOuter1"/><feColorMatrix values="0 0 0 0 0.317647059 0 0 0 0 0.317647059 0 0 0 0 0.317647059 0 0 0 0.5 0" in="shadowBlurOuter1"/></filter><rect id="b" x="1" y="0" width="240" height="246" rx="15"/><rect id="d" x="0" y="45.122" width="240" height="160.878" rx="15"/></defs><g fill="none" fill-rule="evenodd"><g transform="translate(20 18)"><use fill="#000" filter="url(#a)" xlink:href="#b"/><use fill="#FFF" xlink:href="#b"/></g><path d="M75.824 293.78c3.604 0 6.12 2.21 6.12 5.576 0 3.315-2.516 5.644-6.12 5.644h-3.672v-11.22h3.672zm-.017 2.074h-1.36v7.072h1.36c2.26 0 3.774-1.411 3.774-3.57 0-2.21-1.513-3.502-3.774-3.502zm15.623-2.074v2.074h-5.253v2.278h3.859v1.955h-3.86v2.839h5.458V305h-7.752v-11.22h7.548zm5.712-.204c1.785 0 3.043.901 3.706 2.125l-1.564 1.207c-.544-.816-1.224-1.292-2.142-1.292-.748 0-1.394.34-1.394 1.088 0 .646.493.918 1.309 1.292l1.275.561c1.768.782 2.77 1.683 2.77 3.281 0 2.091-1.7 3.366-3.926 3.366-1.938 0-3.502-.986-4.335-2.482l1.58-1.19c.613.85 1.412 1.632 2.755 1.632.986 0 1.598-.459 1.598-1.241 0-.731-.544-.986-1.428-1.394l-1.207-.544c-1.598-.731-2.72-1.649-2.72-3.23 0-1.938 1.615-3.179 3.723-3.179zm11.322 0c2.159 0 3.96 1.071 4.947 2.788l-1.734 1.224c-.748-1.19-1.802-1.887-3.213-1.887-2.091 0-3.621 1.53-3.621 3.706 0 2.159 1.53 3.672 3.62 3.672 1.412 0 2.466-.697 3.214-1.887l1.734 1.224c-.97 1.717-2.788 2.788-4.964 2.788-3.332 0-5.967-2.516-5.967-5.814s2.635-5.814 5.984-5.814zm16.32.204v6.579c0 3.009-2.04 4.845-4.76 4.845-2.737 0-4.76-1.836-4.76-4.845v-6.579h2.295v6.749c0 1.683 1.07 2.55 2.465 2.55 1.41 0 2.465-.867 2.465-2.55v-6.749h2.295zm10.03 0v2.074h-5.253v2.278h3.859v1.955h-3.86v2.839h5.458V305h-7.752v-11.22h7.548zm9.452 0h2.295v11.424h-.765l-6.494-6.936V305h-2.295v-11.424h.748l6.51 6.885v-6.681zm13.294 0v2.074h-3.604V305h-2.295v-9.146h-3.587v-2.074h9.486zm6.817-.204c3.298 0 5.984 2.516 5.984 5.814s-2.686 5.814-5.984 5.814-5.95-2.516-5.95-5.814 2.652-5.814 5.95-5.814zm.017 2.125c-2.091 0-3.604 1.53-3.604 3.689 0 2.176 1.513 3.689 3.604 3.689 2.057 0 3.604-1.513 3.604-3.689 0-2.159-1.547-3.689-3.604-3.689zm16.88-1.921c2.364 0 4.047 1.428 4.047 3.621 0 2.159-1.683 3.638-4.046 3.638h-1.921V305h-2.295v-11.22h4.216zm0 2.023h-1.92v3.23h1.92c1.072 0 1.7-.663 1.7-1.632 0-.935-.628-1.598-1.7-1.598zm11.187-2.227c3.298 0 5.984 2.516 5.984 5.814s-2.686 5.814-5.984 5.814-5.95-2.516-5.95-5.814 2.652-5.814 5.95-5.814zm.017 2.125c-2.091 0-3.604 1.53-3.604 3.689 0 2.176 1.513 3.689 3.604 3.689 2.057 0 3.604-1.513 3.604-3.689 0-2.159-1.547-3.689-3.604-3.689zM209.852 305h-2.584l-2.907-3.961h-1.683V305h-2.295v-11.22h4.216c2.363 0 4.046 1.428 4.046 3.621 0 1.445-.765 2.584-1.972 3.179l3.179 4.42zm-7.174-9.197v3.213h1.92c1.072 0 1.7-.646 1.7-1.615 0-.935-.628-1.598-1.7-1.598h-1.92zM77.15 309.78c2.363 0 4.046 1.428 4.046 3.621 0 2.159-1.683 3.638-4.046 3.638h-1.921V321h-2.295v-11.22h4.216zm0 2.023h-1.921v3.23h1.92c1.072 0 1.7-.663 1.7-1.632 0-.935-.628-1.598-1.7-1.598zm8.177-2.023v9.146h4.913V321h-7.208v-11.22h2.295zM99.182 321l-.63-1.462h-4.59L93.335 321h-2.465l5.015-11.424h.765L101.647 321h-2.465zm-1.445-3.349l-1.48-3.774-1.478 3.774h2.958zm12.699-7.871h2.295v11.424h-.765l-6.494-6.936V321h-2.295v-11.424h.748l6.51 6.885v-6.681zM127.3 321l-.63-1.462h-4.59l-.628 1.462h-2.465l5.015-11.424h.765L129.765 321H127.3zm-1.445-3.349l-1.48-3.774-1.478 3.774h2.958zm9.112-7.871c3.604 0 6.12 2.21 6.12 5.576 0 3.315-2.516 5.644-6.12 5.644h-3.672v-11.22h3.672zm-.017 2.074h-1.36v7.072h1.36c2.26 0 3.774-1.411 3.774-3.57 0-2.21-1.513-3.502-3.774-3.502zm10.37-2.074V321h-2.295v-11.22h2.295zm7.905-.204c2.159 0 3.96 1.071 4.947 2.788l-1.734 1.224c-.748-1.19-1.802-1.887-3.213-1.887-2.091 0-3.621 1.53-3.621 3.706 0 2.159 1.53 3.672 3.62 3.672 1.412 0 2.466-.697 3.214-1.887l1.734 1.224c-.97 1.717-2.788 2.788-4.964 2.788-3.332 0-5.967-2.516-5.967-5.814s2.635-5.814 5.984-5.814zm9.197.204V321h-2.295v-11.22h2.295zm7.87-.204c3.299 0 5.985 2.516 5.985 5.814s-2.686 5.814-5.984 5.814-5.95-2.516-5.95-5.814 2.652-5.814 5.95-5.814zm.018 2.125c-2.091 0-3.604 1.53-3.604 3.689 0 2.176 1.513 3.689 3.604 3.689 2.057 0 3.604-1.513 3.604-3.689 0-2.159-1.547-3.689-3.604-3.689zm15.164-1.921h2.295v11.424h-.765l-6.494-6.936V321h-2.295v-11.424h.748l6.51 6.885v-6.681zM197.578 321l-.63-1.462h-4.59L191.73 321h-2.465l5.015-11.424h.765L200.043 321h-2.465zm-1.445-3.349l-1.48-3.774-1.478 3.774h2.958zm7.735-7.871v9.146h4.913V321h-7.208v-11.22h2.295z" fill="#4F008C" fill-rule="nonzero"/><g transform="translate(20 293)"><use fill="#000" filter="url(#c)" xlink:href="#d"/><use fill="#FFF" xlink:href="#d"/></g><path d="M185.346 399.345c1.24 0 2.27.6 2.83 1.52l-.8.59c-.46-.71-1.14-1.14-2.02-1.14-1.36 0-2.38 1.03-2.38 2.44s1.02 2.44 2.38 2.44c.88 0 1.56-.43 2.02-1.14l.8.59c-.55.92-1.59 1.52-2.83 1.52-1.93 0-3.47-1.47-3.47-3.41 0-1.93 1.54-3.41 3.47-3.41zm8.53 6.71l-.47-1.1h-2.97l-.47 1.1h-1.13l2.91-6.71h.36l2.91 6.71h-1.14zm-.86-2.01l-1.09-2.74-1.1 2.74h2.19zm5.12-4.59c2.18 0 3.59 1.34 3.59 3.29 0 1.92-1.41 3.31-3.59 3.31h-2.07v-6.6h2.07zm-.01.96h-1v4.69h1c1.55 0 2.51-.99 2.51-2.36 0-1.41-.96-2.33-2.51-2.33zm9.29 5.64l-.47-1.1h-2.97l-.47 1.1h-1.13l2.91-6.71h.36l2.91 6.71h-1.14zm-.86-2.01l-1.09-2.74-1.1 2.74h2.19zm11.2-4.59v3.93c0 1.76-1.16 2.78-2.7 2.78-1.57 0-2.72-1.02-2.72-2.78v-3.93h1.06v4c0 1.16.73 1.74 1.66 1.74.92 0 1.64-.58 1.64-1.74v-4h1.06zm5.97 0h1.06v6.71h-.36l-4.02-4.57v4.46h-1.06v-6.71h.37l4.01 4.56v-4.45zm5.79-.11c1.91 0 3.47 1.48 3.47 3.41 0 1.94-1.56 3.41-3.47 3.41-1.93 0-3.46-1.48-3.46-3.41 0-1.93 1.54-3.41 3.46-3.41zm.01.97c-1.37 0-2.37 1.03-2.37 2.43 0 1.42 1 2.45 2.37 2.45 1.35 0 2.37-1.03 2.37-2.45 0-1.39-1.02-2.43-2.37-2.43zM134.124 367.065h2.255v27.06h-7.052v-18.696l-4.592 1.517-1.681-6.232 11.07-3.65zm17.179 21.156h8.364v5.904l-20.705.04v-1.434l9.717-10.62c2.159-2.35 3.239-4.345 3.239-5.985 0-.957-.26-1.708-.78-2.255-.519-.547-1.202-.82-2.05-.82-.847 0-1.523.287-2.029.86-.506.575-.758 1.368-.758 2.379 0 .574.054 1.175.164 1.804h-7.093a9.112 9.112 0 01-.287-2.296c-.055-2.405.895-4.558 2.85-6.458 1.953-1.9 4.38-2.822 7.277-2.767 2.815 0 5.172.847 7.072 2.542 1.9 1.695 2.85 3.813 2.85 6.355 0 1.777-.465 3.464-1.394 5.063-.93 1.6-2.433 3.492-4.51 5.679l-1.927 2.009zm10.455 5.084c-.875-.875-1.312-1.968-1.312-3.28 0-1.312.437-2.405 1.312-3.28.874-.875 1.995-1.312 3.362-1.312 1.312 0 2.398.437 3.26 1.312.86.875 1.29 1.968 1.29 3.28 0 1.312-.43 2.405-1.29 3.28-.862.875-1.948 1.312-3.26 1.312-1.367 0-2.488-.437-3.362-1.312zm27.839-16.646c0 1.503-.301 2.843-.902 4.018-.574 1.175-1.504 2.638-2.788 4.387l-6.765 9.06h-8.323l6.027-8.158c-2.187-.3-4.08-1.319-5.679-3.055-1.599-1.735-2.398-3.847-2.398-6.334-.055-2.788.984-5.166 3.116-7.134s4.564-2.925 7.298-2.87c2.815 0 5.254.963 7.318 2.89s3.096 4.326 3.096 7.196zm-6.97-.041c0-1.011-.335-1.859-1.005-2.542a3.288 3.288 0 00-2.44-1.025c-.956 0-1.77.342-2.439 1.025-.67.683-1.004 1.53-1.004 2.542 0 1.011.334 1.845 1.004 2.5.67.657 1.483.985 2.44.985.984 0 1.804-.335 2.46-1.005.656-.67.984-1.496.984-2.48zm27.88.04c0 1.504-.301 2.844-.902 4.019-.574 1.175-1.504 2.638-2.788 4.387l-6.765 9.06h-8.323l6.027-8.158c-2.187-.3-4.08-1.319-5.679-3.055-1.599-1.735-2.398-3.847-2.398-6.334-.055-2.788.984-5.166 3.116-7.134s4.564-2.925 7.298-2.87c2.815 0 5.254.963 7.318 2.89s3.096 4.326 3.096 7.196zm-6.97-.04c0-1.011-.335-1.859-1.005-2.542a3.288 3.288 0 00-2.44-1.025c-.956 0-1.77.342-2.439 1.025-.67.683-1.004 1.53-1.004 2.542 0 1.011.334 1.845 1.004 2.5.67.657 1.483.985 2.44.985.984 0 1.804-.335 2.46-1.005.656-.67.984-1.496.984-2.48zm7.83 3.772c0-4.127.978-7.462 2.932-10.004s4.722-3.813 8.303-3.813c3.58 0 6.348 1.27 8.302 3.813 1.954 2.542 2.932 5.877 2.932 10.004 0 4.182-.984 7.599-2.952 10.25s-4.729 3.977-8.282 3.977c-3.554 0-6.314-1.326-8.282-3.977s-2.952-6.068-2.952-10.25zm15.253.04c0-2.541-.328-4.407-.984-5.596-.656-1.189-1.668-1.783-3.034-1.783-1.367 0-2.378.594-3.034 1.783-.656 1.19-.984 3.055-.984 5.597 0 5.139 1.339 7.708 4.018 7.708 2.678 0 4.018-2.57 4.018-7.708zM59.848 388.22h8.364v5.905l-20.705.04v-1.434l9.717-10.62c2.16-2.35 3.239-4.345 3.239-5.985 0-.957-.26-1.708-.78-2.255-.518-.547-1.202-.82-2.05-.82-.846 0-1.523.287-2.029.86-.505.575-.758 1.368-.758 2.379 0 .574.055 1.175.164 1.804h-7.093a9.112 9.112 0 01-.287-2.296c-.055-2.405.895-4.558 2.85-6.458 1.954-1.9 4.38-2.822 7.277-2.767 2.815 0 5.173.847 7.072 2.542 1.9 1.695 2.85 3.813 2.85 6.355 0 1.777-.465 3.464-1.394 5.063-.93 1.6-2.433 3.492-4.51 5.679l-1.927 2.009zm36.89 5.905h-7.954l-4.756-7.585-4.715 7.585h-7.954l8.815-13.735-8.323-13.325h7.954l4.223 7.216 4.223-7.216h7.954l-8.2 13.325 8.733 13.735z" fill="#4F008C" fill-rule="nonzero"/><path d="M118.665 382.493c0 2.88-2.1 4.77-4.98 5.25v3.66h-3.54v-3.72c-2.4-.51-4.2-1.95-5.31-4.05l2.73-2.04c1.11 1.74 2.61 2.73 4.53 2.73 1.47 0 2.61-.57 2.61-1.77 0-1.05-.96-1.53-2.31-2.07l-2.04-.75c-2.67-.99-4.47-2.67-4.47-5.22 0-2.49 1.77-4.26 4.26-4.86v-3.63h3.54v3.57c2.13.42 3.57 1.74 4.47 3.42l-2.7 2.04c-.96-1.41-2.04-2.04-3.45-2.04-1.08 0-2.16.39-2.16 1.53 0 .96.81 1.41 2.01 1.89l2.25.78c3 1.11 4.56 2.79 4.56 5.28z" fill="#DB167A" fill-rule="nonzero"/><path d="M185.346 479.046c1.24 0 2.27.6 2.83 1.52l-.8.59c-.46-.71-1.14-1.14-2.02-1.14-1.36 0-2.38 1.03-2.38 2.44s1.02 2.44 2.38 2.44c.88 0 1.56-.43 2.02-1.14l.8.59c-.55.92-1.59 1.52-2.83 1.52-1.93 0-3.47-1.47-3.47-3.41 0-1.93 1.54-3.41 3.47-3.41zm8.53 6.71l-.47-1.1h-2.97l-.47 1.1h-1.13l2.91-6.71h.36l2.91 6.71h-1.14zm-.86-2.01l-1.09-2.74-1.1 2.74h2.19zm5.12-4.59c2.18 0 3.59 1.34 3.59 3.29 0 1.92-1.41 3.31-3.59 3.31h-2.07v-6.6h2.07zm-.01.96h-1v4.69h1c1.55 0 2.51-.99 2.51-2.36 0-1.41-.96-2.33-2.51-2.33zm9.29 5.64l-.47-1.1h-2.97l-.47 1.1h-1.13l2.91-6.71h.36l2.91 6.71h-1.14zm-.86-2.01l-1.09-2.74-1.1 2.74h2.19zm11.2-4.59v3.93c0 1.76-1.16 2.78-2.7 2.78-1.57 0-2.72-1.02-2.72-2.78v-3.93h1.06v4c0 1.16.73 1.74 1.66 1.74.92 0 1.64-.58 1.64-1.74v-4h1.06zm5.97 0h1.06v6.71h-.36l-4.02-4.57v4.46h-1.06v-6.71h.37l4.01 4.56v-4.45zm5.79-.11c1.91 0 3.47 1.48 3.47 3.41 0 1.94-1.56 3.41-3.47 3.41-1.93 0-3.46-1.48-3.46-3.41 0-1.93 1.54-3.41 3.46-3.41zm.01.97c-1.37 0-2.37 1.03-2.37 2.43 0 1.42 1 2.45 2.37 2.45 1.35 0 2.37-1.03 2.37-2.45 0-1.39-1.02-2.43-2.37-2.43zM50.89 479.29c1.91 0 3.47 1.48 3.47 3.41 0 1.94-1.56 3.41-3.47 3.41-1.93 0-3.46-1.48-3.46-3.41 0-1.93 1.54-3.41 3.46-3.41zm.01.97c-1.37 0-2.37 1.03-2.37 2.43 0 1.42 1 2.45 2.37 2.45 1.35 0 2.37-1.03 2.37-2.45 0-1.39-1.02-2.43-2.37-2.43zm13.44-.97h.36V486h-1.06v-4.14l-1.89 2.48h-.36l-1.9-2.48V486h-1.06v-6.71h.37l2.77 3.69 2.77-3.69zm6.16-2.2l-1.28 1.67h-.78l.79-1.86h1.27v.19zm.29 8.91l-.47-1.1h-2.97l-.47 1.1h-1.13l2.91-6.71h.36l2.91 6.71h-1.14zm-.86-2.01l-1.09-2.74-1.1 2.74h2.19zm5.04-4.7c.97 0 1.73.5 2.13 1.18l-.74.57c-.34-.51-.82-.8-1.39-.8-.53 0-1 .26-1 .8 0 .5.38.68.92.94l.74.34c1 .46 1.58.97 1.58 1.88 0 1.17-.95 1.91-2.21 1.91-1.1 0-1.99-.56-2.49-1.43l.75-.57c.38.55.91 1.05 1.73 1.05.68 0 1.14-.35 1.14-.92 0-.52-.39-.72-.97-.99l-.73-.34c-.85-.39-1.54-.9-1.54-1.83 0-1.09.94-1.79 2.08-1.79zM132.525 447.964h2.255v27.06h-7.052v-18.696l-4.592 1.517-1.681-6.232 11.07-3.649zm5.125 13.325c0-4.127.977-7.462 2.931-10.004 1.954-2.542 4.722-3.813 8.303-3.813 3.58 0 6.348 1.271 8.302 3.813 1.954 2.542 2.932 5.877 2.932 10.004 0 4.182-.984 7.599-2.952 10.25-1.968 2.652-4.729 3.977-8.282 3.977-3.554 0-6.314-1.325-8.282-3.977-1.968-2.651-2.952-6.068-2.952-10.25zm15.252.041c0-2.542-.328-4.407-.984-5.596-.656-1.19-1.668-1.784-3.034-1.784-1.367 0-2.378.595-3.034 1.784-.656 1.189-.984 3.054-.984 5.596 0 5.14 1.339 7.708 4.018 7.708 2.678 0 4.018-2.569 4.018-7.708zm8.856 12.874c-.875-.874-1.312-1.968-1.312-3.28 0-1.312.437-2.405 1.312-3.28.874-.874 1.995-1.312 3.362-1.312 1.312 0 2.398.438 3.26 1.312.86.875 1.29 1.968 1.29 3.28 0 1.312-.43 2.406-1.29 3.28-.862.875-1.948 1.312-3.26 1.312-1.367 0-2.488-.437-3.362-1.312zm27.839-16.646c0 1.504-.301 2.843-.902 4.018-.574 1.176-1.504 2.638-2.788 4.387l-6.765 9.061h-8.323l6.027-8.159c-2.187-.3-4.08-1.318-5.679-3.054-1.599-1.736-2.398-3.847-2.398-6.335-.055-2.788.984-5.166 3.116-7.134s4.564-2.924 7.298-2.87c2.815 0 5.254.964 7.318 2.89 2.064 1.928 3.096 4.326 3.096 7.196zm-6.97-.04c0-1.012-.335-1.86-1.005-2.543a3.288 3.288 0 00-2.44-1.025c-.956 0-1.77.342-2.439 1.025-.67.684-1.004 1.531-1.004 2.542 0 1.012.334 1.845 1.004 2.501.67.656 1.483.984 2.44.984.984 0 1.804-.334 2.46-1.004.656-.67.984-1.497.984-2.48zm27.88.04c0 1.504-.301 2.843-.902 4.018-.574 1.176-1.504 2.638-2.788 4.387l-6.765 9.061h-8.323l6.027-8.159c-2.187-.3-4.08-1.318-5.679-3.054-1.599-1.736-2.398-3.847-2.398-6.335-.055-2.788.984-5.166 3.116-7.134s4.564-2.924 7.298-2.87c2.815 0 5.254.964 7.318 2.89 2.064 1.928 3.096 4.326 3.096 7.196zm-6.97-.04c0-1.012-.335-1.86-1.005-2.543a3.288 3.288 0 00-2.44-1.025c-.956 0-1.77.342-2.439 1.025-.67.684-1.004 1.531-1.004 2.542 0 1.012.334 1.845 1.004 2.501.67.656 1.483.984 2.44.984.984 0 1.804-.334 2.46-1.004.656-.67.984-1.497.984-2.48zm7.83 3.771c0-4.127.978-7.462 2.932-10.004s4.722-3.813 8.303-3.813c3.58 0 6.348 1.271 8.302 3.813 1.954 2.542 2.932 5.877 2.932 10.004 0 4.182-.984 7.599-2.952 10.25-1.968 2.652-4.729 3.977-8.282 3.977-3.554 0-6.314-1.325-8.282-3.977-1.968-2.651-2.952-6.068-2.952-10.25zm15.253.041c0-2.542-.328-4.407-.984-5.596-.656-1.19-1.668-1.784-3.034-1.784-1.367 0-2.378.595-3.034 1.784-.656 1.189-.984 3.054-.984 5.596 0 5.14 1.339 7.708 4.018 7.708 2.678 0 4.018-2.569 4.018-7.708zM68.197 465.98c0 2.706-1.018 4.968-3.055 6.786-2.036 1.817-4.544 2.726-7.523 2.726-2.323 0-4.387-.574-6.191-1.722-1.804-1.148-3.17-2.733-4.1-4.756l4.879-3.444c.82 1.23 1.62 2.111 2.398 2.644.78.534 1.688.8 2.727.8 1.093 0 1.975-.266 2.644-.8.67-.533 1.005-1.264 1.005-2.193 0-1.859-1.558-2.788-4.674-2.788h-3.854v-1.804l4.797-7.134h-7.708v-6.355h18.245v1.845l-5.371 7.995c1.722.656 3.116 1.708 4.182 3.157 1.066 1.449 1.599 3.13 1.599 5.043zM96.272 475h-7.954l-4.756-7.585L78.847 475h-7.954l8.815-13.735-8.323-13.325h7.954l4.223 7.216 4.223-7.216h7.954l-8.2 13.325L96.272 475z" fill="#4F008C" fill-rule="nonzero"/><path d="M118.665 466.61c0 2.88-2.1 4.77-4.98 5.25v3.66h-3.54v-3.72c-2.4-.51-4.2-1.95-5.31-4.05l2.73-2.04c1.11 1.74 2.61 2.73 4.53 2.73 1.47 0 2.61-.57 2.61-1.77 0-1.05-.96-1.53-2.31-2.07l-2.04-.75c-2.67-.99-4.47-2.67-4.47-5.22 0-2.49 1.77-4.26 4.26-4.86v-3.63h3.54v3.57c2.13.42 3.57 1.74 4.47 3.42l-2.7 2.04c-.96-1.41-2.04-2.04-3.45-2.04-1.08 0-2.16.39-2.16 1.53 0 .96.81 1.41 2.01 1.89l2.25.78c3 1.11 4.56 2.79 4.56 5.28z" fill="#DB167A" fill-rule="nonzero"/><path d="M51.972 423.124l176.886-.004M48.75 165.75h185.5" stroke="#979797" opacity=".355" stroke-linecap="square"/><path d="M127.595 90.76c5.49 0 9.9 2.385 12.78 6.615l-5.4 4.59c-1.845-2.565-4.14-4.095-7.515-4.095-5.04 0-8.1 3.375-8.1 8.28 0 5.04 3.24 8.505 8.55 8.505 2.835 0 5.085-.99 6.525-2.655v-1.395h-6.93v-6.66h14.67v9.36c-2.655 4.725-7.965 8.235-14.58 8.235-9.09 0-16.155-6.615-16.155-15.39 0-8.73 7.02-15.39 16.155-15.39zm25.88.54V121h-7.74V91.3h7.74zm19.717-.54c5.49 0 9.9 2.385 12.78 6.615l-5.4 4.59c-1.845-2.565-4.14-4.095-7.515-4.095-5.04 0-8.1 3.375-8.1 8.28 0 5.04 3.24 8.505 8.55 8.505 2.835 0 5.085-.99 6.525-2.655v-1.395h-6.93v-6.66h14.67v9.36c-2.655 4.725-7.965 8.235-14.58 8.235-9.09 0-16.155-6.615-16.155-15.39 0-8.73 7.02-15.39 16.155-15.39zm35.96 30.24l-1.08-2.475h-10.664l-1.08 2.475h-8.325l13.5-30.24h2.475l13.5 30.24h-8.325zm-3.824-8.685l-2.565-6.885-2.61 6.885h5.175zm23.9-21.555c5.176 0 8.46 2.565 10.17 5.985l-5.174 3.96c-1.35-1.98-2.655-3.15-4.905-3.15-1.53 0-2.655.54-2.655 1.89 0 1.125.72 1.665 2.565 2.43l3.42 1.44c4.95 2.07 7.605 4.59 7.605 8.955 0 5.85-4.77 9.27-10.89 9.27-5.445 0-9.72-2.655-11.835-6.66l5.22-3.96c1.44 1.935 3.285 3.825 6.615 3.825 2.07 0 3.06-.72 3.06-2.16 0-1.395-.945-1.845-3.015-2.745l-3.06-1.35c-4.725-2.07-7.515-4.77-7.515-8.955 0-5.31 4.365-8.775 10.395-8.775z" fill="#DB167A" fill-rule="nonzero"/><path d="M73.418 106.616c.083 4.216-1.488 7.812-4.712 10.788-3.224 2.976-6.903 4.423-11.036 4.34-4.257 0-7.946-1.457-11.067-4.371-3.12-2.914-4.681-6.541-4.681-10.881 0-2.232.434-4.257 1.302-6.076.95-1.86 2.377-4.071 4.278-6.634l10.23-13.702h12.586l-9.114 12.338c3.307.455 6.169 1.994 8.587 4.619s3.627 5.818 3.627 9.579zm-12.09 3.782c1.033-1.033 1.55-2.315 1.55-3.844 0-1.53-.506-2.79-1.519-3.782s-2.242-1.488-3.689-1.488-2.676.496-3.689 1.488-1.519 2.253-1.519 3.782c0 1.53.506 2.81 1.519 3.844 1.013 1.033 2.242 1.55 3.689 1.55s2.666-.517 3.658-1.55zm11.945-10.168c0-6.241 1.478-11.284 4.433-15.128 2.956-3.844 7.14-5.766 12.555-5.766s9.6 1.922 12.555 5.766c2.956 3.844 4.433 8.887 4.433 15.128 0 6.324-1.488 11.49-4.464 15.5-2.976 4.01-7.15 6.014-12.524 6.014-5.373 0-9.548-2.005-12.524-6.014-2.976-4.01-4.464-9.176-4.464-15.5zm23.064.062c0-3.844-.496-6.665-1.488-8.463-.992-1.798-2.521-2.697-4.588-2.697-2.066 0-3.596.899-4.588 2.697s-1.488 4.619-1.488 8.463c0 7.77 2.026 11.656 6.076 11.656 4.051 0 6.076-3.885 6.076-11.656zM41.988 55v-8.58h1.755V55h-1.755zm9.269-8.58h1.755v8.736h-.585l-4.966-5.304V55h-1.755v-8.736h.572l4.979 5.278V46.42zM56.912 55v-6.994h-2.743V46.42h7.254v1.586h-2.756V55h-1.755zm5.668 0v-8.58h5.772v1.586h-4.017v1.742h2.951v1.495h-2.951v2.171h4.173V55H62.58zm14.69 0h-1.976l-2.223-3.029h-1.287V55h-1.755v-8.58h3.224c.901 0 1.642.256 2.223.767.58.511.871 1.179.871 2.002 0 .537-.132 1.02-.396 1.45-.265.429-.635.76-1.112.994L77.27 55zm-5.486-7.033v2.457h1.469c.407 0 .726-.113.956-.338.23-.225.344-.524.344-.897 0-.364-.12-.659-.357-.884-.239-.225-.553-.338-.943-.338h-1.469zM83.9 46.42h1.755v8.736h-.585l-4.966-5.304V55h-1.755v-8.736h.572l4.979 5.278V46.42zM87.618 55v-8.58h5.772v1.586h-4.017v1.742h2.951v1.495h-2.951v2.171h4.173V55h-5.928zm9.386 0v-6.994h-2.743V46.42h7.254v1.586h-2.756V55h-1.755zM42.452 73V58.48h10.076v3.41h-6.292v2.002h4.488v3.168h-4.488v2.53h6.556V73h-10.34zM68.72 58.216h1.21V73h-3.784v-6.094l-3.014 3.52h-1.21l-2.992-3.498V73h-3.784V58.216h1.21l6.182 7.546 6.182-7.546zM72.834 73V58.48h5.698c1.628 0 2.97.458 4.026 1.375 1.056.917 1.584 2.123 1.584 3.619 0 1.467-.535 2.67-1.606 3.608-1.07.939-2.405 1.408-4.004 1.408h-1.914V73h-3.784zm3.784-7.81h1.936c.528 0 .95-.158 1.265-.473.315-.315.473-.73.473-1.243 0-.513-.158-.924-.473-1.232-.315-.308-.737-.462-1.265-.462h-1.936v3.41zM99.036 73h-4.224l-3.278-4.51h-1.562V73h-3.784V58.48h5.698c1.628 0 2.97.458 4.026 1.375 1.056.917 1.584 2.123 1.584 3.619 0 1.819-.763 3.197-2.288 4.136L99.036 73zm-9.064-11.22v3.41h1.936c.528 0 .95-.158 1.265-.473.315-.315.473-.73.473-1.243 0-.513-.158-.924-.473-1.232-.315-.308-.737-.462-1.265-.462h-1.936zM100.532 73V58.48h10.076v3.41h-6.292v2.002h4.488v3.168h-4.488v2.53h6.556V73h-10.34zm21.78-14.52h3.784v14.784h-1.21l-7.876-7.634V73h-3.784V58.216h1.21l7.876 7.524v-7.26zM129 73V58.48h5.06c2.259-.03 4.15.63 5.676 1.98 1.525 1.35 2.273 3.095 2.244 5.236.03 2.127-.722 3.883-2.255 5.269-1.533 1.386-3.421 2.064-5.665 2.035H129zm3.784-3.41h1.254c1.203 0 2.182-.352 2.937-1.056.755-.704 1.133-1.65 1.133-2.838 0-1.203-.37-2.134-1.111-2.794-.74-.66-1.727-.99-2.959-.99h-1.254v7.678zM144.136 73V58.48h10.076v3.41h-6.292v2.002h4.488v3.168h-4.488v2.53h6.556V73h-10.34z" fill="#4F008C" fill-rule="nonzero"/><g fill-rule="nonzero"><path d="M80.11 186.12h3.74V231H72.154v-31.008l-7.616 2.516-2.788-10.336 18.36-6.052zm41.335 29.784c0 4.579-1.723 8.375-5.168 11.39-3.446 3.015-7.707 4.522-12.784 4.522-3.944 0-7.446-.952-10.506-2.856-3.06-1.904-5.361-4.533-6.902-7.888l8.092-5.712c1.36 2.04 2.708 3.502 4.046 4.386 1.337.884 2.935 1.326 4.794 1.326 1.949 0 3.513-.442 4.692-1.326 1.178-.884 1.768-2.12 1.768-3.706 0-3.037-2.584-4.556-7.752-4.556H91.049V186.12h27.812v10.54h-16.728v5.236c1.586-.317 3.014-.476 4.284-.476 3.898-.09 7.4 1.247 10.506 4.012 3.105 2.765 4.612 6.256 4.522 10.472zm2.914 13.736c-1.45-1.45-2.176-3.264-2.176-5.44 0-2.176.725-3.99 2.176-5.44 1.45-1.45 3.31-2.176 5.576-2.176 2.176 0 3.978.725 5.406 2.176 1.428 1.45 2.142 3.264 2.142 5.44 0 2.176-.714 3.99-2.142 5.44-1.428 1.45-3.23 2.176-5.406 2.176-2.267 0-4.125-.725-5.576-2.176zm46.366-27.608c0 2.493-.499 4.715-1.496 6.664-.952 1.95-2.493 4.375-4.624 7.276L153.385 231h-13.804l9.996-13.532c-3.627-.499-6.766-2.187-9.418-5.066-2.652-2.879-3.978-6.38-3.978-10.506-.09-4.624 1.632-8.568 5.168-11.832 3.536-3.264 7.57-4.85 12.104-4.76 4.67 0 8.715 1.598 12.138 4.794 3.423 3.196 5.134 7.174 5.134 11.934zm-11.56-.068c0-1.677-.555-3.083-1.666-4.216-1.11-1.133-2.46-1.7-4.046-1.7-1.587 0-2.935.567-4.046 1.7-1.11 1.133-1.666 2.539-1.666 4.216s.555 3.06 1.666 4.148c1.11 1.088 2.46 1.632 4.046 1.632 1.632 0 2.992-.555 4.08-1.666 1.088-1.11 1.632-2.482 1.632-4.114zm46.434.068c0 2.493-.498 4.715-1.496 6.664-.952 1.95-2.493 4.375-4.624 7.276L188.26 231h-13.804l9.996-13.532c-3.626-.499-6.766-2.187-9.418-5.066-2.652-2.879-3.978-6.38-3.978-10.506-.09-4.624 1.632-8.568 5.168-11.832 3.536-3.264 7.571-4.85 12.104-4.76 4.67 0 8.716 1.598 12.138 4.794 3.423 3.196 5.134 7.174 5.134 11.934zm-11.56-.068c0-1.677-.555-3.083-1.666-4.216-1.11-1.133-2.459-1.7-4.046-1.7-1.586 0-2.935.567-4.046 1.7-1.11 1.133-1.666 2.539-1.666 4.216s.556 3.06 1.666 4.148c1.111 1.088 2.46 1.632 4.046 1.632 1.632 0 2.992-.555 4.08-1.666 1.088-1.11 1.632-2.482 1.632-4.114zm13.183 6.256c0-6.845 1.62-12.376 4.862-16.592 3.241-4.216 7.831-6.324 13.77-6.324 5.938 0 10.528 2.108 13.77 6.324 3.241 4.216 4.862 9.747 4.862 16.592 0 6.936-1.632 12.603-4.896 17-3.264 4.397-7.843 6.596-13.736 6.596-5.894 0-10.472-2.199-13.736-6.596-3.264-4.397-4.896-10.064-4.896-17zm25.296.068c0-4.216-.544-7.31-1.632-9.282-1.088-1.972-2.766-2.958-5.032-2.958-2.267 0-3.944.986-5.032 2.958-1.088 1.972-1.632 5.066-1.632 9.282 0 8.523 2.221 12.784 6.664 12.784 4.442 0 6.664-4.261 6.664-12.784zM121.948 236.948c1.488 0 2.724.72 3.396 1.824l-.96.708c-.552-.852-1.368-1.368-2.424-1.368-1.632 0-2.856 1.236-2.856 2.928s1.224 2.928 2.856 2.928c1.056 0 1.872-.516 2.424-1.368l.96.708c-.66 1.104-1.908 1.824-3.396 1.824-2.316 0-4.164-1.764-4.164-4.092 0-2.316 1.848-4.092 4.164-4.092zM132.184 245l-.564-1.32h-3.564l-.564 1.32h-1.356l3.492-8.052h.432l3.492 8.052h-1.368zm-1.032-2.412l-1.308-3.288-1.32 3.288h2.628zM141.244 245h-1.452l-2.256-3.06h-1.452V245h-1.272v-7.92h2.892c1.608 0 2.688.984 2.688 2.424 0 1.044-.576 1.86-1.524 2.232l2.376 3.264zm-5.16-6.792v2.604h1.596c.9 0 1.404-.54 1.404-1.296 0-.768-.504-1.308-1.404-1.308h-1.596zm9.996-1.26c1.392 0 2.532.612 3.276 1.656l-.924.756c-.552-.78-1.332-1.248-2.364-1.248-1.692 0-2.844 1.248-2.844 2.916 0 1.704 1.188 2.964 2.916 2.964 1.068 0 1.884-.48 2.364-1.2v-.852h-2.436v-1.128h3.708v2.232c-.684 1.236-2.064 2.088-3.696 2.088-2.352 0-4.176-1.776-4.176-4.092s1.836-4.092 4.176-4.092zm8.928 0c2.292 0 4.164 1.776 4.164 4.092 0 2.328-1.872 4.092-4.164 4.092-2.316 0-4.152-1.776-4.152-4.092s1.848-4.092 4.152-4.092zm.012 1.164c-1.644 0-2.844 1.236-2.844 2.916 0 1.704 1.2 2.94 2.844 2.94 1.62 0 2.844-1.236 2.844-2.94 0-1.668-1.224-2.916-2.844-2.916zm14.124-1.032v1.14h-3.816v2.364h3.144v1.152h-3.144V245h-1.272v-7.92h5.088zm2.532 0V245h-1.272v-7.92h1.272zm4.572 0v5.952c0 1.452-.876 2.1-2.232 2.1-.408 0-.78-.06-1.092-.132v-1.092c.324.036.588.06.816.06.792 0 1.236-.24 1.236-1.068v-5.82h1.272zm5.664-.132c2.292 0 4.164 1.776 4.164 4.092 0 2.328-1.872 4.092-4.164 4.092-2.316 0-4.152-1.776-4.152-4.092s1.848-4.092 4.152-4.092zm.012 1.164c-1.644 0-2.844 1.236-2.844 2.916 0 1.704 1.2 2.94 2.844 2.94 1.62 0 2.844-1.236 2.844-2.94 0-1.668-1.224-2.916-2.844-2.916zm16.128-1.164h.432V245h-1.272v-4.968l-2.268 2.976h-.432l-2.28-2.976V245h-1.272v-8.052h.444l3.324 4.428 3.324-4.428zm7.632.132v1.14h-3.936v2.028h2.964v1.104h-2.964v2.508h4.08V245h-5.352v-7.92h5.208zm6.876 0h1.272v8.052h-.432l-4.824-5.484V245h-1.272v-8.052h.444l4.812 5.472v-5.34zm5.664-.132c1.164 0 2.076.6 2.556 1.416l-.888.684c-.408-.612-.984-.96-1.668-.96-.636 0-1.2.312-1.2.96 0 .6.456.816 1.104 1.128l.888.408c1.2.552 1.896 1.164 1.896 2.256 0 1.404-1.14 2.292-2.652 2.292-1.32 0-2.388-.672-2.988-1.716l.9-.684c.456.66 1.092 1.26 2.076 1.26.816 0 1.368-.42 1.368-1.104 0-.624-.468-.864-1.164-1.188l-.876-.408c-1.02-.468-1.848-1.08-1.848-2.196 0-1.308 1.128-2.148 2.496-2.148zm10.74.132v4.716c0 2.112-1.392 3.336-3.24 3.336-1.884 0-3.264-1.224-3.264-3.336v-4.716h1.272v4.8c0 1.392.876 2.088 1.992 2.088 1.104 0 1.968-.696 1.968-2.088v-4.8h1.272zm7.224 7.92l-.564-1.32h-3.564l-.564 1.32h-1.356l3.492-8.052h.432l3.492 8.052h-1.368zm-1.032-2.412l-1.308-3.288-1.32 3.288h2.628zm4.932-5.508v6.78h3.624V245h-4.896v-7.92h1.272z" fill="#4F008C"/><path d="M54.265 216c0 2.88-2.1 4.77-4.98 5.25v3.66h-3.54v-3.72c-2.4-.51-4.2-1.95-5.31-4.05l2.73-2.04c1.11 1.74 2.61 2.73 4.53 2.73 1.47 0 2.61-.57 2.61-1.77 0-1.05-.96-1.53-2.31-2.07l-2.04-.75c-2.67-.99-4.47-2.67-4.47-5.22 0-2.49 1.77-4.26 4.26-4.86v-3.63h3.54v3.57c2.13.42 3.57 1.74 4.47 3.42l-2.7 2.04c-.96-1.41-2.04-2.04-3.45-2.04-1.08 0-2.16.39-2.16 1.53 0 .96.81 1.41 2.01 1.89l2.25.78c3 1.11 4.56 2.79 4.56 5.28z" fill="#DB167A"/></g><path d="M84.378 138.416l.9-.684c.576.84 1.268 1.26 2.076 1.26.408 0 .738-.1.99-.3a.974.974 0 00.378-.804c0-.272-.084-.486-.252-.642-.168-.156-.472-.338-.912-.546l-.876-.408c-.616-.28-1.078-.59-1.386-.93-.308-.34-.462-.762-.462-1.266 0-.632.24-1.148.72-1.548.48-.4 1.072-.6 1.776-.6.552 0 1.054.128 1.506.384.452.256.802.6 1.05 1.032l-.888.684c-.432-.64-.988-.96-1.668-.96-.352 0-.64.084-.864.252-.224.168-.336.404-.336.708.008.144.026.262.054.354.028.092.102.188.222.288.12.1.204.162.252.186l.468.24c.048.024.084.044.108.06l.888.408c.664.304 1.146.628 1.446.972.3.344.45.772.45 1.284 0 .68-.25 1.232-.75 1.656-.5.424-1.134.636-1.902.636a3.384 3.384 0 01-2.988-1.716zM91.35 140v-7.92h1.272V140H91.35zm7.284 0v-6.78H95.97v-1.14h6.612v1.14h-2.676V140h-1.272zm4.836 0v-7.92h5.208v1.14h-3.936v2.028h2.964v1.104h-2.964v2.508h4.08V140h-5.352zm9.024-1.584l.9-.684c.576.84 1.268 1.26 2.076 1.26.408 0 .738-.1.99-.3a.974.974 0 00.378-.804c0-.272-.084-.486-.252-.642-.168-.156-.472-.338-.912-.546l-.876-.408c-.616-.28-1.078-.59-1.386-.93-.308-.34-.462-.762-.462-1.266 0-.632.24-1.148.72-1.548.48-.4 1.072-.6 1.776-.6.552 0 1.054.128 1.506.384.452.256.802.6 1.05 1.032l-.888.684c-.432-.64-.988-.96-1.668-.96-.352 0-.64.084-.864.252-.224.168-.336.404-.336.708.008.144.026.262.054.354.028.092.102.188.222.288.12.1.204.162.252.186l.468.24c.048.024.084.044.108.06l.888.408c.664.304 1.146.628 1.446.972.3.344.45.772.45 1.284 0 .68-.25 1.232-.75 1.656-.5.424-1.134.636-1.902.636a3.384 3.384 0 01-2.988-1.716zm6.492-2.376c-.016-1.128.388-2.096 1.212-2.904.824-.808 1.804-1.204 2.94-1.188 1.128-.016 2.11.38 2.946 1.188.836.808 1.242 1.776 1.218 2.904.024 1.128-.382 2.096-1.218 2.904-.836.808-1.818 1.204-2.946 1.188-1.136.016-2.118-.38-2.946-1.188-.828-.808-1.23-1.776-1.206-2.904zm7.008-.012c0-.832-.272-1.526-.816-2.082-.544-.556-1.22-.834-2.028-.834-.816 0-1.494.276-2.034.828-.54.552-.81 1.248-.81 2.088 0 .848.268 1.55.804 2.106.536.556 1.216.834 2.04.834.808 0 1.484-.28 2.028-.84.544-.56.816-1.26.816-2.1zm8.496 1.668c0 .672-.236 1.224-.708 1.656-.472.432-1.092.648-1.86.648h-3.396v-7.92h2.772c.712 0 1.286.198 1.722.594.436.396.654.902.654 1.518s-.22 1.112-.66 1.488c.464.152.826.404 1.086.756.26.352.39.772.39 1.26zm-3.312-4.5h-1.404v2.136h1.404c.384 0 .684-.096.9-.288.216-.192.324-.456.324-.792 0-.328-.106-.586-.318-.774-.212-.188-.514-.282-.906-.282zm2.028 4.464c0-.384-.124-.686-.372-.906-.248-.22-.588-.33-1.02-.33h-2.04v2.46h2.04c.44 0 .782-.11 1.026-.33.244-.22.366-.518.366-.894zm8.868 2.34h-1.452l-2.256-3.06h-1.452V140h-1.272v-7.92h2.892c.8 0 1.448.226 1.944.678.496.452.744 1.034.744 1.746 0 .52-.134.976-.402 1.368-.268.392-.642.68-1.122.864l2.376 3.264zm-5.16-6.792v2.604h1.596c.432 0 .774-.118 1.026-.354s.378-.55.378-.942c0-.392-.126-.708-.378-.948s-.594-.36-1.026-.36h-1.596zM148.23 140l-.564-1.32h-3.564l-.564 1.32h-1.356l3.492-8.052h.432l3.492 8.052h-1.368zm-1.02-2.412l-1.32-3.276-1.332 3.276h2.652zm8.604-5.508h1.272v8.052h-.432l-4.824-5.496V140h-1.272v-8.052h.444l4.812 5.472v-5.34zm5.556 3.96c-.024-1.128.378-2.096 1.206-2.904.828-.808 1.818-1.204 2.97-1.188 1.392 0 2.484.552 3.276 1.656l-.924.756c-.592-.832-1.38-1.248-2.364-1.248-.832 0-1.514.276-2.046.828-.532.552-.798 1.248-.798 2.088 0 .848.274 1.554.822 2.118.548.564 1.246.846 2.094.846 1.056 0 1.844-.4 2.364-1.2v-.852h-2.436v-1.128h3.708v2.232a3.984 3.984 0 01-1.524 1.524 4.29 4.29 0 01-2.172.564c-1.16.016-2.15-.378-2.97-1.182-.82-.804-1.222-1.774-1.206-2.91zm9.132 3.96v-7.92h1.272V140h-1.272zm2.484-3.96c-.024-1.128.378-2.096 1.206-2.904.828-.808 1.818-1.204 2.97-1.188 1.392 0 2.484.552 3.276 1.656l-.924.756c-.592-.832-1.38-1.248-2.364-1.248-.832 0-1.514.276-2.046.828-.532.552-.798 1.248-.798 2.088 0 .848.274 1.554.822 2.118.548.564 1.246.846 2.094.846 1.056 0 1.844-.4 2.364-1.2v-.852h-2.436v-1.128h3.708v2.232a3.984 3.984 0 01-1.524 1.524 4.29 4.29 0 01-2.172.564c-1.16.016-2.15-.378-2.97-1.182-.82-.804-1.222-1.774-1.206-2.91zm14.328 3.96l-.564-1.32h-3.564l-.564 1.32h-1.356l3.492-8.052h.432l3.492 8.052h-1.368zm-1.02-2.412l-1.32-3.276-1.332 3.276h2.652zm2.724.828l.9-.684c.576.84 1.268 1.26 2.076 1.26.408 0 .738-.1.99-.3a.974.974 0 00.378-.804c0-.272-.084-.486-.252-.642-.168-.156-.472-.338-.912-.546l-.876-.408c-.616-.28-1.078-.59-1.386-.93-.308-.34-.462-.762-.462-1.266 0-.632.24-1.148.72-1.548.48-.4 1.072-.6 1.776-.6.552 0 1.054.128 1.506.384.452.256.802.6 1.05 1.032l-.888.684c-.432-.64-.988-.96-1.668-.96-.352 0-.64.084-.864.252-.224.168-.336.404-.336.708.008.144.026.262.054.354.028.092.102.188.222.288.12.1.204.162.252.186l.468.24c.048.024.084.044.108.06l.888.408c.664.304 1.146.628 1.446.972.3.344.45.772.45 1.284 0 .68-.25 1.232-.75 1.656-.5.424-1.134.636-1.902.636a3.384 3.384 0 01-2.988-1.716zm6.9 3.72l.12-3.408h1.464l-.564 3.408h-1.02zm-126.03 2.736a.916.916 0 01.936-.924c.264 0 .484.088.66.264a.895.895 0 01.264.66.916.916 0 01-.924.936.916.916 0 01-.936-.936zm.168 7.128l.24-5.04h1.044l.24 5.04h-1.524zm3.336-3.204v-4.716h1.272v4.8c0 .656.182 1.168.546 1.536.364.368.846.552 1.446.552.592 0 1.068-.184 1.428-.552.36-.368.54-.88.54-1.536v-4.8h1.272v4.716c0 1.024-.302 1.836-.906 2.436-.604.6-1.382.9-2.334.9-.968 0-1.754-.3-2.358-.9-.604-.6-.906-1.412-.906-2.436zm2.76-5.484l.948-2.232h1.536v.228l-1.548 2.004h-.936zm4.728 7.104l.9-.684c.576.84 1.268 1.26 2.076 1.26.408 0 .738-.1.99-.3a.974.974 0 00.378-.804c0-.272-.084-.486-.252-.642-.168-.156-.472-.338-.912-.546l-.876-.408c-.616-.28-1.078-.59-1.386-.93-.308-.34-.462-.762-.462-1.266 0-.632.24-1.148.72-1.548.48-.4 1.072-.6 1.776-.6.552 0 1.054.128 1.506.384.452.256.802.6 1.05 1.032l-.888.684c-.432-.64-.988-.96-1.668-.96-.352 0-.64.084-.864.252-.224.168-.336.404-.336.708.008.144.026.262.054.354.028.092.102.188.222.288.12.1.204.162.252.186l.468.24c.048.024.084.044.108.06l.888.408c.664.304 1.146.628 1.446.972.3.344.45.772.45 1.284 0 .68-.25 1.232-.75 1.656-.5.424-1.134.636-1.902.636a3.384 3.384 0 01-2.988-1.716zM93.108 152l-.564-1.32H88.98l-.564 1.32H87.06l3.492-8.052h.432L94.476 152h-1.368zm-1.02-2.412l-1.32-3.276-1.332 3.276h2.652zM95.436 152v-7.92h1.272v6.78h3.624V152h-4.896zm5.22-3.96c-.016-1.128.388-2.096 1.212-2.904.824-.808 1.804-1.204 2.94-1.188 1.128-.016 2.11.38 2.946 1.188.836.808 1.242 1.776 1.218 2.904.024 1.128-.382 2.096-1.218 2.904-.836.808-1.818 1.204-2.946 1.188-1.136.016-2.118-.38-2.946-1.188-.828-.808-1.23-1.776-1.206-2.904zm7.008-.012c0-.832-.272-1.526-.816-2.082-.544-.556-1.22-.834-2.028-.834-.816 0-1.494.276-2.034.828-.54.552-.81 1.248-.81 2.088 0 .848.268 1.55.804 2.106.536.556 1.216.834 2.04.834.808 0 1.484-.28 2.028-.84.544-.56.816-1.26.816-2.1zm1.968 2.388l.9-.684c.576.84 1.268 1.26 2.076 1.26.408 0 .738-.1.99-.3a.974.974 0 00.378-.804c0-.272-.084-.486-.252-.642-.168-.156-.472-.338-.912-.546l-.876-.408c-.616-.28-1.078-.59-1.386-.93-.308-.34-.462-.762-.462-1.266 0-.632.24-1.148.72-1.548.48-.4 1.072-.6 1.776-.6.552 0 1.054.128 1.506.384.452.256.802.6 1.05 1.032l-.888.684c-.432-.64-.988-.96-1.668-.96-.352 0-.64.084-.864.252-.224.168-.336.404-.336.708.008.144.026.262.054.354.028.092.102.188.222.288.12.1.204.162.252.186l.468.24c.048.024.084.044.108.06l.888.408c.664.304 1.146.628 1.446.972.3.344.45.772.45 1.284 0 .68-.25 1.232-.75 1.656-.5.424-1.134.636-1.902.636a3.384 3.384 0 01-2.988-1.716zM119.664 152v-7.92h5.208v1.14h-3.936v2.028h2.964v1.104h-2.964v2.508h4.08V152h-5.352zm6.528 0v-7.92h1.272v6.78h3.624V152h-4.896zm8.34 0v-7.92h2.892c.8 0 1.448.226 1.944.678.496.452.744 1.034.744 1.746s-.25 1.296-.75 1.752c-.5.456-1.146.684-1.938.684h-1.62V152h-1.272zm1.272-4.188h1.596c.44 0 .784-.116 1.032-.348.248-.232.372-.548.372-.948 0-.4-.124-.718-.372-.954s-.592-.354-1.032-.354h-1.596v2.604zM147.66 152h-1.452l-2.256-3.06H142.5V152h-1.272v-7.92h2.892c.8 0 1.448.226 1.944.678.496.452.744 1.034.744 1.746 0 .52-.134.976-.402 1.368-.268.392-.642.68-1.122.864L147.66 152zm-5.16-6.792v2.604h1.596c.432 0 .774-.118 1.026-.354s.378-.55.378-.942c0-.392-.126-.708-.378-.948s-.594-.36-1.026-.36H142.5zm5.34 2.832c-.016-1.128.388-2.096 1.212-2.904.824-.808 1.804-1.204 2.94-1.188 1.128-.016 2.11.38 2.946 1.188.836.808 1.242 1.776 1.218 2.904.024 1.128-.382 2.096-1.218 2.904-.836.808-1.818 1.204-2.946 1.188-1.136.016-2.118-.38-2.946-1.188-.828-.808-1.23-1.776-1.206-2.904zm7.008-.012c0-.832-.272-1.526-.816-2.082-.544-.556-1.22-.834-2.028-.834-.816 0-1.494.276-2.034.828-.54.552-.81 1.248-.81 2.088 0 .848.268 1.55.804 2.106.536.556 1.216.834 2.04.834.808 0 1.484-.28 2.028-.84.544-.56.816-1.26.816-2.1zm-3.336-4.716l.948-2.232h1.536v.228l-1.548 2.004h-.936zm11.58 8.688h-1.452l-1.92-2.952-1.908 2.952h-1.464l2.676-4.044-2.508-3.876h1.464l1.752 2.796 1.728-2.796h1.452l-2.46 3.876 2.64 4.044zm.972 0v-7.92h1.272V152h-1.272zm10.056-8.052h.432V152h-1.272v-4.968l-2.268 2.976h-.432l-2.28-2.988V152h-1.272v-8.052h.444l3.324 4.428 3.324-4.428zm1.644 4.092c-.016-1.128.388-2.096 1.212-2.904.824-.808 1.804-1.204 2.94-1.188 1.128-.016 2.11.38 2.946 1.188.836.808 1.242 1.776 1.218 2.904.024 1.128-.382 2.096-1.218 2.904-.836.808-1.818 1.204-2.946 1.188-1.136.016-2.118-.38-2.946-1.188-.828-.808-1.23-1.776-1.206-2.904zm7.008-.012c0-.832-.272-1.526-.816-2.082-.544-.556-1.22-.834-2.028-.834-.816 0-1.494.276-2.034.828-.54.552-.81 1.248-.81 2.088 0 .848.268 1.55.804 2.106.536.556 1.216.834 2.04.834.808 0 1.484-.28 2.028-.84.544-.56.816-1.26.816-2.1zm12.684-4.08h.432V152h-1.272v-4.968l-2.268 2.976h-.432l-2.28-2.988V152h-1.272v-8.052h.444l3.324 4.428 3.324-4.428zM197.58 152v-7.92h5.208v1.14h-3.936v2.028h2.964v1.104h-2.964v2.508h4.08V152h-5.352zm5.964-1.584l.9-.684c.576.84 1.268 1.26 2.076 1.26.408 0 .738-.1.99-.3a.974.974 0 00.378-.804c0-.272-.084-.486-.252-.642-.168-.156-.472-.338-.912-.546l-.876-.408c-.616-.28-1.078-.59-1.386-.93-.308-.34-.462-.762-.462-1.266 0-.632.24-1.148.72-1.548.48-.4 1.072-.6 1.776-.6.552 0 1.054.128 1.506.384.452.256.802.6 1.05 1.032l-.888.684c-.432-.64-.988-.96-1.668-.96-.352 0-.64.084-.864.252-.224.168-.336.404-.336.708.008.144.026.262.054.354.028.092.102.188.222.288.12.1.204.162.252.186l.468.24c.048.024.084.044.108.06l.888.408c.664.304 1.146.628 1.446.972.3.344.45.772.45 1.284 0 .68-.25 1.232-.75 1.656-.5.424-1.134.636-1.902.636a3.384 3.384 0 01-2.988-1.716zm7.404-1.116l-.24-5.22h1.512l-.228 5.22h-1.044zm-.408 1.908a.916.916 0 01.936-.936c.264 0 .484.088.66.264a.91.91 0 01.264.672.895.895 0 01-.264.66.895.895 0 01-.66.264.916.916 0 01-.936-.924z" fill="#4F008C" fill-rule="nonzero"/></g></svg>